<?xml version="1.0" standalone="no"?>
<!DOCTYPE svg PUBLIC "-//W3C//DTD SVG 20010904//EN"
 "http://www.w3.org/TR/2001/REC-SVG-20010904/DTD/svg10.dtd">
<svg version="1.0" xmlns="http://www.w3.org/2000/svg"
 width="512.000000pt" height="512.000000pt" viewBox="0 0 512.000000 512.000000"
 preserveAspectRatio="xMidYMid meet">
<metadata>
Created by potrace 1.11, written by Peter Selinger 2001-2013
</metadata>
<g transform="translate(0.000000,512.000000) scale(0.100000,-0.100000)"
fill="#000000" stroke="none">
<path d="M2227 4449 c-69 -18 -97 -59 -97 -141 0 -63 27 -113 70 -131 17 -8
74 -13 140 -12 121 0 120 1 117 -64 -2 -25 -7 -35 -21 -37 -23 -3 -66 -34 -77
-55 -4 -7 -22 -79 -39 -159 -18 -80 -43 -190 -56 -245 -14 -55 -27 -113 -30
-130 -3 -16 -11 -55 -19 -86 -8 -31 -15 -60 -15 -63 0 -18 59 -2 104 28 76 50
138 68 236 68 98 1 158 -17 234 -68 29 -19 63 -34 79 -34 25 0 28 3 24 23 -6
20 -96 408 -137 590 -20 86 -36 111 -86 129 -31 11 -33 14 -31 55 1 24 4 43 7
44 3 1 57 2 120 3 127 2 151 10 180 59 24 39 27 125 6 166 -33 63 -39 64 -378
65 -169 1 -318 -2 -331 -5z"/>
<path d="M1303 3938 c-39 -10 -83 -58 -92 -99 -4 -19 -6 -95 -6 -169 1 -112 4
-141 19 -166 23 -38 71 -68 111 -71 17 0 35 -2 40 -2 11 -1 15 -220 5 -222 -3
-1 -117 -2 -255 -3 -260 -2 -283 -5 -305 -46 -6 -10 -10 -93 -10 -193 l0 -173
79 1 c152 3 261 -56 318 -173 23 -47 28 -73 31 -152 l4 -96 312 -1 311 0 93
-56 c51 -32 97 -57 102 -57 6 0 10 -2 10 -4 0 -2 11 -48 25 -102 14 -55 27
-107 29 -116 4 -16 -29 -17 -489 -17 l-494 -1 -1 262 c-1 288 -4 305 -64 362
-63 58 -70 59 -440 60 -373 1 -400 -2 -454 -56 -71 -69 -67 -9 -70 -873 -2
-572 0 -791 9 -820 16 -57 43 -91 97 -122 l47 -28 360 0 c350 1 361 1 401 22
87 46 114 104 114 246 l0 87 -37 0 c-21 1 -161 1 -311 0 l-273 0 3 227 c3 214
4 231 26 270 30 58 86 111 141 137 45 20 59 21 767 23 l720 2 42 -142 c23 -78
42 -145 42 -149 0 -3 -125 -7 -277 -8 -153 -1 -340 -2 -417 -3 l-138 -2 -62
49 c-33 27 -63 52 -66 55 -3 4 -25 22 -50 41 -25 19 -47 37 -50 40 -21 24 -85
34 -237 35 -192 1 -239 -11 -297 -75 -54 -60 -62 -112 -57 -378 l1 -33 846 3
847 3 14 -50 c38 -135 45 -139 223 -139 112 0 139 3 161 17 25 16 46 52 53 88
2 8 6 31 10 51 l8 38 849 -6 849 -5 1 33 c7 253 -4 323 -59 381 -59 62 -90 70
-281 72 -210 2 -216 -1 -371 -131 l-105 -89 -160 2 c-88 1 -276 2 -418 3
l-257 1 6 27 c3 15 22 82 42 149 l36 122 721 -2 c713 -3 720 -3 767 -24 67
-30 131 -99 151 -163 14 -42 17 -93 17 -261 l0 -209 -311 0 -311 0 4 -109 c3
-103 5 -112 34 -153 16 -24 50 -54 74 -68 l45 -25 360 0 360 0 47 28 c51 29
78 63 96 116 9 24 12 254 12 810 -1 752 -1 777 -20 820 -24 51 -71 96 -120
113 -25 8 -136 12 -381 12 l-346 0 -49 -25 c-34 -18 -58 -40 -79 -74 l-30 -48
-3 -268 -3 -268 -493 -1 -493 0 19 83 c30 130 38 157 48 157 5 0 51 25 102 56
l93 57 312 1 312 0 0 81 c0 136 49 233 152 297 45 28 121 45 202 43 l77 -1 0
174 c0 99 -4 182 -10 192 -22 41 -45 44 -303 45 -182 0 -250 4 -256 13 -5 9
-7 187 -2 212 1 3 19 5 42 6 43 1 80 23 112 67 18 23 20 44 22 169 1 154 -5
189 -42 229 -13 14 -21 27 -19 30 3 3 -3 6 -12 7 -49 7 -952 7 -952 0 0 -4 22
-105 50 -224 27 -119 52 -227 54 -240 3 -13 7 -28 11 -34 3 -6 75 -9 178 -9
95 0 207 0 250 0 l77 -1 0 -118 0 -118 -72 -75 c-40 -41 -123 -127 -184 -193
l-111 -118 -564 0 -563 1 -101 107 c-55 60 -137 146 -182 192 l-83 84 0 119
c0 88 3 119 13 119 6 1 120 2 251 3 l240 2 18 70 c9 39 19 81 22 95 2 14 14
63 25 110 12 47 24 101 27 120 3 19 8 38 10 41 2 4 6 22 9 41 l6 34 -450 -1
c-247 0 -463 -3 -478 -7z"/>
<path d="M335 3606 c-83 -26 -135 -66 -180 -136 -39 -62 -44 -111 -45 -417
l-1 -293 78 6 c43 2 105 7 138 9 33 3 112 8 175 11 112 7 167 11 183 13 4 0 7
93 7 205 0 113 4 216 10 230 21 55 45 61 272 62 114 0 210 3 213 6 10 10 -18
117 -44 164 -30 55 -98 111 -166 136 -39 15 -86 17 -323 17 -192 -1 -289 -4
-317 -13z"/>
<path d="M4105 3604 c-72 -25 -137 -83 -172 -154 -34 -69 -48 -136 -30 -147 6
-3 101 -7 211 -8 290 -1 276 12 276 -282 l0 -213 43 0 c44 -1 419 -1 495 0
l43 0 -3 293 -3 292 -28 57 c-32 65 -89 121 -156 152 -43 20 -63 21 -341 23
-231 1 -304 -2 -335 -13z"/>
<path d="M2447 3310 c-86 -33 -149 -97 -176 -181 -11 -35 -17 -216 -8 -226 6
-5 549 -5 555 1 2 3 3 47 3 98 -1 118 -21 178 -79 236 -80 81 -197 109 -295
72z"/>
</g>
</svg>
